<svg viewBox="0 0 341 270">
  <g transform="translate(0 -.003)" fill-rule="nonzero" fill="none">
    <ellipse fill="#3F3D56" cx="171" cy="246.13" rx="170" ry="23.127"/>
    <circle fill="#2F2E41" cx="120.805" cy="139.503" r="79"/>
    <path fill="#2F2E41" d="M84.805 201.503h24v43h-24zM132.805 201.503h24v43h-24z"/>
    <ellipse fill="#2F2E41" cx="104.805" cy="245.003" rx="20" ry="7.5"/>
    <ellipse fill="#2F2E41" cx="152.805" cy="244.003" rx="20" ry="7.5"/>
    <circle fill="#FFF" cx="122.805" cy="119.503" r="27"/>
    <circle fill="#3F3D56" cx="122.805" cy="119.503" r="9"/>
    <path d="M44.172 66.035C37.793 37.468 58.184 8.601 89.716 1.56c31.532-7.04 62.265 10.41 68.644 38.978 6.379 28.568-14.519 39.104-46.05 46.145-31.533 7.04-61.76 7.92-68.138-20.648z" fill="#6C63FF"/>
    <ellipse fill="#2F2E41" transform="rotate(-23.171 190.02 112.347)" cx="190.02" cy="112.347" rx="39.5" ry="12.4"/>
    <ellipse fill="#2F2E41" transform="rotate(-23.171 42.02 165.346)" cx="42.02" cy="165.346" rx="39.5" ry="12.4"/>
    <path d="M166.805 162.503c0 7.732-19.91 23-42 23-22.092 0-43-14.268-43-22 0-7.732 20.908-6 43-6 22.09 0 42-2.732 42 5z" fill="#FFF"/>
    <circle fill="#6C63FF" cx="270.603" cy="142.288" r="61.186"/>
  </g>
</svg>
