<svg viewBox="0 0 744 536">
  <g fill="none" fill-rule="evenodd">
    <circle fill="#F2F2F2" fill-rule="nonzero" cx="292.609" cy="213" r="213"/>
    <path d="M0 51.142c0 77.498 48.618 140.209 108.7 140.209" fill="#2F2E41" fill-rule="nonzero"/>
    <path d="M108.7 191.35c0-78.368 54.256-141.783 121.304-141.783M39.384 58.168c0 73.614 31.003 133.183 69.317 133.183" fill="#6C63FF" fill-rule="nonzero"/>
    <path d="M108.7 191.35c0-100.137 62.711-181.167 140.209-181.167" fill="#2F2E41" fill-rule="nonzero"/>
    <path d="M85.833 192.339s15.415-.475 20.061-3.783c4.646-3.308 23.713-7.258 24.866-1.953 1.152 5.306 23.167 26.388 5.762 26.529-17.404.14-40.439-2.711-45.076-5.536-4.637-2.824-5.613-15.257-5.613-15.257z" fill="#A8A8A8" fill-rule="nonzero"/>
    <path d="M136.833 211.285c-17.404.14-40.44-2.711-45.076-5.536-3.531-2.15-4.939-9.869-5.41-13.43-.325.014-.514.02-.514.02s.976 12.433 5.613 15.257c4.637 2.825 27.672 5.676 45.077 5.536 5.023-.04 6.759-1.828 6.663-4.476-.698 1.6-2.614 2.599-6.353 2.629z" fill="#000" fill-rule="nonzero" opacity=".2"/>
    <ellipse fill="#3F3D56" fill-rule="nonzero" cx="198.609" cy="424.5" rx="187" ry="25.44"/>
    <ellipse fill="#000" fill-rule="nonzero" opacity=".1" cx="198.609" cy="424.5" rx="157" ry="21.359"/>
    <ellipse fill="#3F3D56" fill-rule="nonzero" cx="574" cy="512.78" rx="170" ry="23.127"/>
    <path d="M337.61 311.184S720.264 223 728.264 339 604 355.28 694 378.28M447.402 404.564s39.073-10.82 41.477 24.044c2.405 34.865-32.16 44.783-5.11 51.696" stroke="#2F2E41" stroke-width="2"/>
    <path fill="#2F2E41" fill-rule="nonzero" d="M108.609 159h208v242h-208z"/>
    <path fill="#3F3D56" fill-rule="nonzero" d="M87.609 135h250v86h-250zM87.609 237h250v86h-250zM87.609 339h250v86h-250z"/>
    <path fill="#6C63FF" fill-rule="nonzero" opacity=".4" d="M271.609 150h16v16h-16z"/>
    <path fill="#6C63FF" fill-rule="nonzero" opacity=".8" d="M294.609 150h16v16h-16z"/>
    <path fill="#6C63FF" fill-rule="nonzero" d="M317.609 150h16v16h-16z"/>
    <path fill="#6C63FF" fill-rule="nonzero" opacity=".4" d="M271.609 251h16v16h-16z"/>
    <path fill="#6C63FF" fill-rule="nonzero" opacity=".8" d="M294.609 251h16v16h-16z"/>
    <path fill="#6C63FF" fill-rule="nonzero" d="M317.609 251h16v16h-16z"/>
    <path fill="#6C63FF" fill-rule="nonzero" opacity=".4" d="M271.609 352h16v16h-16z"/>
    <path fill="#6C63FF" fill-rule="nonzero" opacity=".8" d="M294.609 352h16v16h-16z"/>
    <path fill="#6C63FF" fill-rule="nonzero" d="M317.609 352h16v16h-16z"/>
    <circle fill="#2F2E41" fill-rule="nonzero" cx="580" cy="405.28" r="79"/>
    <path fill="#2F2E41" fill-rule="nonzero" d="M544 467.28h24v43h-24zM592 467.28h24v43h-24z"/>
    <ellipse fill="#2F2E41" fill-rule="nonzero" cx="564" cy="510.78" rx="20" ry="7.5"/>
    <ellipse fill="#2F2E41" fill-rule="nonzero" cx="612" cy="509.78" rx="20" ry="7.5"/>
    <circle fill="#FFF" fill-rule="nonzero" cx="582" cy="385.28" r="27"/>
    <circle fill="#3F3D56" fill-rule="nonzero" cx="582" cy="385.28" r="9"/>
    <path d="M503.367 331.812c-6.379-28.567 14.012-57.433 45.544-64.474 31.532-7.041 62.265 10.41 68.644 38.977 6.38 28.568-14.518 39.104-46.05 46.145-31.533 7.04-61.759 7.92-68.138-20.648z" fill="#6C63FF" fill-rule="nonzero"/>
    <ellipse fill="#2F2E41" fill-rule="nonzero" transform="rotate(-23.171 649.215 378.124)" cx="649.215" cy="378.124" rx="39.5" ry="12.4"/>
    <ellipse fill="#2F2E41" fill-rule="nonzero" transform="rotate(-23.171 501.215 431.124)" cx="501.215" cy="431.124" rx="39.5" ry="12.4"/>
    <path d="M626 428.28c0 7.732-19.909 23-42 23s-43-14.268-43-22c0-7.732 20.909-6 43-6s42-2.732 42 5z" fill="#FFF" fill-rule="nonzero"/>
  </g>
</svg>
