<svg viewBox="0 0 297 269">
  <g fill-rule="nonzero" fill="none">
    <ellipse fill="#3F3D56" cx="148.5" cy="252.942" rx="148.5" ry="16"/>
    <circle fill="#2F2E41" cx="97.084" cy="139.698" r="79"/>
    <path fill="#2F2E41" d="M60.356 201.27l23.998.283-.506 42.997-23.998-.283zM108.352 201.835l23.998.283-.506 42.997-23.998-.283z"/>
    <ellipse fill="#2F2E41" transform="rotate(-89.325 79.842 245.002)" cx="79.842" cy="245.002" rx="7.5" ry="20"/>
    <ellipse fill="#2F2E41" transform="rotate(-89.325 127.85 244.568)" cx="127.85" cy="244.568" rx="7.5" ry="20"/>
    <circle fill="#FFF" cx="99.319" cy="119.723" r="27"/>
    <circle fill="#3F3D56" cx="99.319" cy="119.723" r="9"/>
    <path d="M21.322 65.333C15.28 36.693 36.01 8.068 67.622 1.399c31.613-6.669 62.139 11.143 68.18 39.784 6.042 28.64-14.978 38.93-46.59 45.599-31.614 6.669-61.848 7.192-67.89-21.45z" fill="#6C63FF"/>
    <path d="M217.592 183.77c0 55.076-32.74 74.307-73.13 74.307a119.316 119.316 0 01-8.359-.285c-36.45-2.58-64.77-22.8-64.77-74.021 0-53.009 67.738-119.897 72.826-124.847l.01-.009.293-.285s73.13 70.065 73.13 125.14z" fill="#6C63FF"/>
    <path d="M141.798 249.651l26.747-37.373-26.814 41.477-.071 4.29c-1.872-.04-3.725-.129-5.556-.253l2.882-55.103-.022-.428.049-.08.272-5.204-26.88-41.58 26.964 37.677.063 1.105 2.179-41.633-23.014-42.966 23.294 35.658 2.268-86.314.01-.294v.285l-.38 68.064L166.7 99.996l-23.004 32.847-.606 37.276 21.391-35.775-21.48 41.26-.339 20.722 31.056-49.791-31.172 57.023-.748 46.093z" fill="#3F3D56"/>
    <ellipse fill="#2F2E41" transform="rotate(-68.158 72.813 164.209)" cx="72.813" cy="164.209" rx="12.4" ry="39.5"/>
  </g>
</svg>
