<svg viewBox="0 0 340 267">
  <g fill-rule="nonzero" fill="none">
    <ellipse fill="#3F3D56" cx="170" cy="243.63" rx="170" ry="23.127"/>
    <circle fill="#2F2E41" cx="168.402" cy="139.503" r="79"/>
    <path fill="#2F2E41" d="M132.402 201.503h24v43h-24zM180.402 201.503h24v43h-24z"/>
    <ellipse fill="#2F2E41" cx="152.402" cy="245.003" rx="20" ry="7.5"/>
    <ellipse fill="#2F2E41" cx="200.402" cy="244.003" rx="20" ry="7.5"/>
    <circle fill="#FFF" cx="170.402" cy="119.503" r="27"/>
    <circle fill="#3F3D56" cx="170.402" cy="119.503" r="9"/>
    <path d="M91.77 66.035C85.39 37.468 105.78 8.601 137.314 1.56c31.532-7.04 62.265 10.41 68.644 38.978 6.379 28.568-14.519 39.104-46.051 46.145-31.532 7.04-61.759 7.92-68.137-20.648z" fill="#6C63FF"/>
    <ellipse fill="#2F2E41" transform="rotate(-69.082 241.422 79.846)" cx="241.422" cy="79.846" rx="39.5" ry="12.4"/>
    <ellipse fill="#2F2E41" transform="rotate(-64.626 79.422 102.846)" cx="79.422" cy="102.846" rx="12.4" ry="39.5"/>
    <path d="M129.598 168.003c0 7.732 19.908 23 42 23 22.091 0 42.804-21.768 42.804-29.5 0-7.732-20.713 1.5-42.804 1.5-22.092 0-42-2.732-42 5z" fill="#FFF"/>
  </g>
</svg>
